<mxfile host="app.diagrams.net" modified="2023-02-16T09:03:19.467Z" agent="5.0 (Windows NT 10.0; Win64; x64) AppleWebKit/537.36 (KHTML, like Gecko) Chrome/110.0.0.0 Safari/537.36" etag="Yzu52gfXjVZwu2DVF0c5" version="20.8.20" type="github">
  <diagram id="C5RBs43oDa-KdzZeNtuy" name="Page-1">
    <mxGraphModel dx="1434" dy="764" grid="1" gridSize="10" guides="1" tooltips="1" connect="1" arrows="1" fold="1" page="1" pageScale="1" pageWidth="827" pageHeight="1169" math="0" shadow="0">
      <root>
        <mxCell id="WIyWlLk6GJQsqaUBKTNV-0" />
        <mxCell id="WIyWlLk6GJQsqaUBKTNV-1" parent="WIyWlLk6GJQsqaUBKTNV-0" />
        <mxCell id="uq_z2yGRC9yY41pWaPdx-4" style="edgeStyle=orthogonalEdgeStyle;rounded=0;orthogonalLoop=1;jettySize=auto;html=1;entryX=0.5;entryY=0;entryDx=0;entryDy=0;" edge="1" parent="WIyWlLk6GJQsqaUBKTNV-1" source="uq_z2yGRC9yY41pWaPdx-0" target="uq_z2yGRC9yY41pWaPdx-3">
          <mxGeometry relative="1" as="geometry" />
        </mxCell>
        <mxCell id="uq_z2yGRC9yY41pWaPdx-0" value="Start" style="ellipse;whiteSpace=wrap;html=1;" vertex="1" parent="WIyWlLk6GJQsqaUBKTNV-1">
          <mxGeometry x="354" y="50" width="120" height="80" as="geometry" />
        </mxCell>
        <mxCell id="uq_z2yGRC9yY41pWaPdx-1" value="Koniec" style="ellipse;whiteSpace=wrap;html=1;" vertex="1" parent="WIyWlLk6GJQsqaUBKTNV-1">
          <mxGeometry x="490" y="480" width="120" height="80" as="geometry" />
        </mxCell>
        <mxCell id="uq_z2yGRC9yY41pWaPdx-6" style="edgeStyle=orthogonalEdgeStyle;rounded=0;orthogonalLoop=1;jettySize=auto;html=1;entryX=0.5;entryY=0;entryDx=0;entryDy=0;" edge="1" parent="WIyWlLk6GJQsqaUBKTNV-1" source="uq_z2yGRC9yY41pWaPdx-3" target="uq_z2yGRC9yY41pWaPdx-5">
          <mxGeometry relative="1" as="geometry" />
        </mxCell>
        <mxCell id="uq_z2yGRC9yY41pWaPdx-3" value="Pobierz a" style="whiteSpace=wrap;html=1;" vertex="1" parent="WIyWlLk6GJQsqaUBKTNV-1">
          <mxGeometry x="354" y="180" width="120" height="60" as="geometry" />
        </mxCell>
        <mxCell id="uq_z2yGRC9yY41pWaPdx-10" style="edgeStyle=orthogonalEdgeStyle;rounded=0;orthogonalLoop=1;jettySize=auto;html=1;" edge="1" parent="WIyWlLk6GJQsqaUBKTNV-1" source="uq_z2yGRC9yY41pWaPdx-5" target="uq_z2yGRC9yY41pWaPdx-8">
          <mxGeometry relative="1" as="geometry" />
        </mxCell>
        <mxCell id="uq_z2yGRC9yY41pWaPdx-14" style="edgeStyle=orthogonalEdgeStyle;rounded=0;orthogonalLoop=1;jettySize=auto;html=1;entryX=0.5;entryY=0;entryDx=0;entryDy=0;" edge="1" parent="WIyWlLk6GJQsqaUBKTNV-1" source="uq_z2yGRC9yY41pWaPdx-5" target="uq_z2yGRC9yY41pWaPdx-9">
          <mxGeometry relative="1" as="geometry">
            <mxPoint x="480" y="380" as="targetPoint" />
            <Array as="points">
              <mxPoint x="550" y="330" />
            </Array>
          </mxGeometry>
        </mxCell>
        <mxCell id="uq_z2yGRC9yY41pWaPdx-5" value="a &amp;gt; 0" style="rhombus;whiteSpace=wrap;html=1;" vertex="1" parent="WIyWlLk6GJQsqaUBKTNV-1">
          <mxGeometry x="374" y="290" width="80" height="80" as="geometry" />
        </mxCell>
        <mxCell id="uq_z2yGRC9yY41pWaPdx-13" style="edgeStyle=orthogonalEdgeStyle;rounded=0;orthogonalLoop=1;jettySize=auto;html=1;entryX=0;entryY=0.5;entryDx=0;entryDy=0;" edge="1" parent="WIyWlLk6GJQsqaUBKTNV-1" source="uq_z2yGRC9yY41pWaPdx-8" target="uq_z2yGRC9yY41pWaPdx-9">
          <mxGeometry relative="1" as="geometry" />
        </mxCell>
        <mxCell id="uq_z2yGRC9yY41pWaPdx-8" value="a = a * -1" style="rounded=0;whiteSpace=wrap;html=1;" vertex="1" parent="WIyWlLk6GJQsqaUBKTNV-1">
          <mxGeometry x="234" y="390" width="120" height="60" as="geometry" />
        </mxCell>
        <mxCell id="uq_z2yGRC9yY41pWaPdx-15" style="edgeStyle=orthogonalEdgeStyle;rounded=0;orthogonalLoop=1;jettySize=auto;html=1;entryX=0.5;entryY=0;entryDx=0;entryDy=0;" edge="1" parent="WIyWlLk6GJQsqaUBKTNV-1" source="uq_z2yGRC9yY41pWaPdx-9" target="uq_z2yGRC9yY41pWaPdx-1">
          <mxGeometry relative="1" as="geometry" />
        </mxCell>
        <mxCell id="uq_z2yGRC9yY41pWaPdx-9" value="Pokaz a" style="rounded=0;whiteSpace=wrap;html=1;" vertex="1" parent="WIyWlLk6GJQsqaUBKTNV-1">
          <mxGeometry x="490" y="390" width="120" height="60" as="geometry" />
        </mxCell>
        <mxCell id="uq_z2yGRC9yY41pWaPdx-16" value="Tak" style="text;html=1;align=center;verticalAlign=middle;resizable=0;points=[];autosize=1;strokeColor=none;fillColor=none;" vertex="1" parent="WIyWlLk6GJQsqaUBKTNV-1">
          <mxGeometry x="470" y="305" width="40" height="30" as="geometry" />
        </mxCell>
        <mxCell id="uq_z2yGRC9yY41pWaPdx-17" value="Nie" style="text;html=1;align=center;verticalAlign=middle;resizable=0;points=[];autosize=1;strokeColor=none;fillColor=none;" vertex="1" parent="WIyWlLk6GJQsqaUBKTNV-1">
          <mxGeometry x="320" y="305" width="40" height="30" as="geometry" />
        </mxCell>
      </root>
    </mxGraphModel>
  </diagram>
</mxfile>
